<svg width="36" height="36" viewBox="0 0 36 36" fill="none" xmlns="http://www.w3.org/2000/svg">
<circle cx="18" cy="18" r="18" fill="#0077B5"/>
<path d="M26.7998 26.8001V20.3541C26.7998 17.1861 26.1178 14.7661 22.4218 14.7661C20.6398 14.7661 19.4518 15.7341 18.9678 16.6581H18.9238V15.0521H15.4258V26.8001H19.0778V20.9701C19.0778 19.4301 19.3638 17.9561 21.2558 17.9561C23.1258 17.9561 23.1478 19.6941 23.1478 21.0581V26.7781H26.7998V26.8001Z" fill="white"/>
<path d="M9.48633 15.0522H13.1383V26.8002H9.48633V15.0522Z" fill="white"/>
<path d="M11.3122 9.2002C10.1462 9.2002 9.2002 10.1462 9.2002 11.3122C9.2002 12.4782 10.1462 13.4462 11.3122 13.4462C12.4782 13.4462 13.4242 12.4782 13.4242 11.3122C13.4242 10.1462 12.4782 9.2002 11.3122 9.2002Z" fill="white"/>
</svg>
